<svg xmlns="http://www.w3.org/2000/svg" version="1.1" xmlns:xlink="http://www.w3.org/1999/xlink" xmlns:svgjs="http://svgjs.dev/svgjs" width="1000" height="1000" viewBox="0 0 1000 1000"><rect width="1000" height="1000" fill="#ffffff"></rect><g transform="matrix(0.7,0,0,0.7,149.57577015660104,359.5648306147368)"><svg viewBox="0 0 396 159" data-background-color="#ffffff" preserveAspectRatio="xMidYMid meet" height="401" width="1000" xmlns="http://www.w3.org/2000/svg" xmlns:xlink="http://www.w3.org/1999/xlink"><g id="tight-bounds" transform="matrix(1,0,0,1,0.23999288283712872,0.04824392221452456)"><svg viewBox="0 0 395.5199999999999 158.90350967740582" height="158.90350967740582" width="395.5199999999999"><g><svg viewBox="0 0 395.5199999999999 158.90350967740582" height="158.90350967740582" width="395.5199999999999"><g transform="matrix(1,0,0,1,0,98.20874387327873)"><svg viewBox="0 0 395.5199999999999 60.69476580412708" height="60.69476580412708" width="395.5199999999999"><g id="textblocktransform"><svg viewBox="0 0 395.5199999999999 60.69476580412708" height="60.69476580412708" width="395.5199999999999" id="textblock"><g><svg viewBox="0 0 395.5199999999999 60.69476580412708" height="60.69476580412708" width="395.5199999999999"><g transform="matrix(1,0,0,1,0,0)"><svg width="395.5199999999999" viewBox="3.25 -36.95000076293945 305.2699890136719 46.849998474121094" height="60.69476580412708" data-palette-color="#922b21"><path d="M14.75-27.45L14.75-27.45 10.95-27.45 10.95-17.95 14.6-17.95Q19.6-17.95 19.6-22.85L19.6-22.85Q19.6-25 18.3-26.23 17-27.45 14.75-27.45ZM10.95-11.7L10.95 0 3.25 0 3.25-33.7 14.9-33.7Q20.55-33.7 23.98-30.7 27.4-27.7 27.4-22.9L27.4-22.9Q27.4-15.7 21.25-12.95L21.25-12.95 29.8 0 20.6 0 13.3-11.7 10.95-11.7ZM43-5L43-5Q44.55-5 45.4-5.95 46.25-6.9 46.25-8.55L46.25-8.55 46.25-10.4 43.9-10.4Q42.05-10.4 41.05-9.6 40.05-8.8 40.05-7.55L40.05-7.55Q40.05-5 43-5ZM46.6 0L46.6-3.1Q45 0.15 40.3 0.15L40.3 0.15Q36.6 0.15 34.52-1.95 32.45-4.05 32.45-7.2L32.45-7.2Q32.45-10.85 35.12-12.88 37.8-14.9 43.05-14.9L43.05-14.9 46.25-14.9 46.25-16.65Q46.25-19.85 42-19.85L42-19.85Q37.9-19.85 34.4-17.55L34.4-17.55 34.4-24.1Q37.4-25.8 43.05-25.8L43.05-25.8Q48.45-25.8 51.1-23.48 53.75-21.15 53.75-16.25L53.75-16.25 53.75 0 46.6 0ZM82.84-25.35L73.7-0.75Q69.75 9.9 61.65 9.9L61.65 9.9Q60.1 9.9 58.85 9.65L58.85 9.65 58.85 3.85Q59.65 4.05 60.55 4.05L60.55 4.05Q64.7 4.05 66.55-0.4L66.55-0.4 56.75-25.35 64.7-25.35 67.45-17.45Q68.5-14.4 69.17-12.2 69.84-10 70-9.3L70-9.3 70.15-8.6Q70.7-10.6 72.84-17.45L72.84-17.45 75.34-25.35 82.84-25.35ZM109.69-12.8L109.69-12.8Q109.69-7.05 106.42-3.33 103.14 0.4 97.29 0.4L97.29 0.4Q91.34 0.4 88.09-3.18 84.84-6.75 84.84-12.35L84.84-12.35Q84.84-18.2 88.24-21.98 91.64-25.75 97.29-25.75L97.29-25.75Q103.19-25.75 106.44-22.1 109.69-18.45 109.69-12.8ZM93.64-17.95Q92.44-15.9 92.44-12.65 92.44-9.4 93.67-7.33 94.89-5.25 97.34-5.25L97.34-5.25Q99.74-5.25 100.92-7.28 102.09-9.3 102.09-12.55L102.09-12.55Q102.09-20 97.24-20L97.24-20Q94.84-20 93.64-17.95ZM137.69-16.45L137.69 0 130.39 0 130.39-15.1Q130.39-17.35 129.34-18.53 128.29-19.7 126.39-19.7L126.39-19.7Q124.39-19.7 123.06-18.13 121.74-16.55 121.74-13.4L121.74-13.4 121.74 0 114.44 0 114.44-25.35 121.74-25.35 121.74-21.05Q122.69-23.15 124.66-24.38 126.64-25.6 129.39-25.6L129.39-25.6Q133.29-25.6 135.49-23.28 137.69-20.95 137.69-16.45L137.69-16.45ZM153.89-14.3L153.89-14.3 153.54-13.1 161.64-13.1 161.29-14.3Q159.84-19.2 158.91-22.65 157.99-26.1 157.79-27.1L157.79-27.1 157.59-28.1Q157.19-25.35 153.89-14.3ZM151.69-6.9L149.64 0 141.59 0 152.84-33.7 162.54-33.7 173.79 0 165.54 0 163.49-6.9 151.69-6.9ZM191.74-25.35L191.74-20 186.99-20 186.99 0 179.74 0 179.74-20 176.44-20 176.44-25.35 179.74-25.35 179.74-26.3Q179.74-30.9 182.31-33.45 184.88-36 189.44-36L189.44-36Q191.78-36 193.24-35.5L193.24-35.5 193.24-29.6Q191.84-30.15 190.63-30.15L190.63-30.15Q188.78-30.15 187.88-29.3 186.99-28.45 186.99-26.3L186.99-26.3 186.99-25.35 191.74-25.35ZM202.48-12.65L202.48 0 195.18 0 195.23-25.35 202.48-25.35 202.48-20.65Q203.18-22.85 204.81-24.18 206.43-25.5 208.58-25.5L208.58-25.5Q209.78-25.5 210.48-25.3L210.48-25.3 210.48-18.4Q209.28-18.95 207.73-18.95L207.73-18.95Q205.38-18.95 203.93-17.23 202.48-15.5 202.48-12.65L202.48-12.65ZM221.28-25.35L221.28 0 213.98 0 213.98-25.35 221.28-25.35ZM220.63-35.7Q221.88-34.45 221.88-32.7 221.88-30.95 220.63-29.7 219.38-28.45 217.63-28.45 215.88-28.45 214.63-29.7 213.38-30.95 213.38-32.7 213.38-34.45 214.63-35.7 215.88-36.95 217.63-36.95 219.38-36.95 220.63-35.7ZM233.68-12.6L233.68-12.6Q233.68-9.55 235.28-7.68 236.88-5.8 239.18-5.8L239.18-5.8Q241.68-5.8 243.23-7.75 244.78-9.7 244.78-12.95L244.78-12.95Q244.78-16.1 243.1-17.85 241.43-19.6 239.13-19.6 236.83-19.6 235.25-17.75 233.68-15.9 233.68-12.6ZM252.08-25.35L252.08 9.35 244.78 9.35 244.78-3.95Q242.23 0.3 237.18 0.3L237.18 0.3Q232.08 0.3 229.18-3.4 226.28-7.1 226.28-12.75L226.28-12.75Q226.28-18.7 229.28-22.18 232.28-25.65 237.23-25.65 242.18-25.65 244.78-21.45L244.78-21.45 244.78-25.35 252.08-25.35ZM281.08-25.35L281.08 0 273.78 0 273.78-4.05Q271.78 0.2 266.08 0.2L266.08 0.2Q262.18 0.2 260-1.98 257.83-4.15 257.83-8.4L257.83-8.4 257.83-25.35 265.13-25.35 265.13-10.05Q265.13-5.6 269.03-5.6L269.03-5.6Q273.78-5.6 273.78-11.95L273.78-11.95 273.78-25.35 281.08-25.35ZM306.97-7.55L306.97-1.45Q304.37 0.25 299.02 0.25L299.02 0.25Q292.77 0.25 289.3-3.38 285.82-7 285.82-12.7L285.82-12.7Q285.82-18.75 289.2-22.18 292.57-25.6 297.52-25.6L297.52-25.6Q302.62-25.6 305.57-22.63 308.52-19.65 308.52-13.75L308.52-13.75Q308.52-12.6 308.12-9.8L308.12-9.8 293.22-9.8Q293.97-7.7 295.82-6.55 297.67-5.4 300.27-5.4L300.27-5.4Q304.12-5.4 306.97-7.55L306.97-7.55ZM297.82-20.05L297.82-20.05Q296.07-20.05 294.72-18.78 293.37-17.5 292.92-15L292.92-15 301.72-15 301.72-15.6Q301.37-20.05 297.82-20.05Z" opacity="1" transform="matrix(1,0,0,1,0,0)" fill="#922b21" class="wordmark-text-0" data-fill-palette-color="primary" id="text-0"></path></svg></g></svg></g></svg></g></svg></g><g transform="matrix(1,0,0,1,147.648945212999,0)"><svg viewBox="0 0 100.22210957400193 83.88016634130364" height="83.88016634130364" width="100.22210957400193"><g><svg xmlns="http://www.w3.org/2000/svg" xmlns:xlink="http://www.w3.org/1999/xlink" version="1.1" x="0" y="0" viewBox="10.700000762939453 17.100000381469727 78.5 65.70000457763672" enable-background="new 0 0 100 100" xml:space="preserve" height="83.88016634130364" width="100.22210957400193" class="icon-icon-0" data-fill-palette-color="accent" id="icon-0"><g fill="#922b21" data-fill-palette-color="accent"><path d="M73.2 17.1h-8.4-4.6-4-4.1-4H44h-3.3-4.7-9.3l-16 16.8v0.4 3.6 6.3c0 3.5 1.6 6.6 4 8.5v30.1h23.3 23.2 24V52.8c2.4-1.9 4-5 4-8.5v-6.3-3.6-0.4L73.2 17.1zM71.4 21.1l11.9 12.8h-9-0.4l-7-12.8H71.4zM29.7 37.9h10.8v6.3c0 3.6-2.4 6.5-5.4 6.5s-5.4-2.9-5.4-6.5V37.9zM44.6 37.9h10.8v6.3c0 3.6-2.4 6.5-5.4 6.5s-5.4-2.9-5.4-6.5V37.9zM59.5 37.9h10.8v6.3c0 3.6-2.4 6.5-5.4 6.5s-5.4-2.9-5.4-6.5V37.9zM62.4 21.1l1.1 2.1 5.9 10.7h-10-0.2l-2.3-12.8H62.4zM52.8 21.1l2.3 12.8H44.9l2.5-12.8H52.8zM38.3 21.1h4.9l-2.2 11.4-0.3 1.4h-0.2-9.9l4-6.6L38.3 21.1zM28.5 21.1h5.2L26 33.9h-0.3-9L28.5 21.1zM25.6 37.9v6.3c0 3.6-2.4 6.5-5.4 6.5s-5.4-2.9-5.4-6.5v-6.3H25.6zM42.1 78.9V67.4c0-2.1 1.3-3.9 2.9-3.9h9.3c1.6 0 2.9 1.8 2.9 3.9v11.5H42.1zM81.3 78.9h-20V67.4c0-4.4-3.1-7.9-6.9-7.9H45c-3.8 0-6.9 3.6-6.9 7.9v11.5H18.7V54.6c0.5 0.1 1 0.1 1.5 0.1 3 0 5.7-1.6 7.4-4.1 1.7 2.5 4.4 4.1 7.4 4.1 3 0 5.7-1.6 7.4-4.1 1.7 2.5 4.4 4.1 7.4 4.1s5.7-1.6 7.4-4.1c1.7 2.5 4.4 4.1 7.4 4.1 3 0 5.7-1.6 7.4-4.1 1.7 2.5 4.4 4.1 7.4 4.1 0.5 0 1-0.1 1.5-0.1V78.9zM85.2 44.3c0 3.6-2.4 6.5-5.4 6.5s-5.4-2.9-5.4-6.5v-6.3h10.8V44.3z" fill="#922b21" data-fill-palette-color="accent"></path></g></svg></g></svg></g><g></g></svg></g><defs></defs></svg><rect width="395.5199999999999" height="158.90350967740582" fill="none" stroke="none" visibility="hidden"></rect></g></svg></g></svg>